<svg width="42" height="41" viewBox="0 0 42 41" fill="none" xmlns="http://www.w3.org/2000/svg">
<path fill-rule="evenodd" clip-rule="evenodd" d="M9.77258 3.74819C13.0746 1.54187 16.9566 0.364258 20.9277 0.364258C26.2527 0.364258 31.3595 2.47973 35.1245 6.24529C38.8895 10.0108 41.0044 15.118 41.0039 20.4433C41.0035 24.4146 39.8256 28.2967 37.6191 31.5987C35.4127 34.9007 32.2766 37.4743 28.6077 38.994C24.9388 40.5137 20.9017 40.9114 17.0071 40.1366C13.1124 39.3619 9.53498 37.4495 6.72728 34.6414C3.9195 31.8333 2.00761 28.2555 1.23322 24.3606C0.458916 20.4656 0.856822 16.4284 2.37681 12.7594C3.8968 9.09044 6.47057 5.95451 9.77258 3.74819Z" fill="url(#paint0_linear_4017_27378)"/>
<path fill-rule="evenodd" clip-rule="evenodd" d="M11.2616 5.97327C14.1233 4.06113 17.4877 3.04053 20.9293 3.04053C23.2144 3.04053 25.4771 3.49064 27.5882 4.36517C29.6993 5.23969 31.6175 6.5215 33.2332 8.13742C34.8489 9.75333 36.1304 11.6717 37.0047 13.783C37.879 15.8943 38.3289 18.1572 38.3287 20.4424C38.3284 23.8842 37.3075 27.2486 35.3952 30.1104C33.4829 32.9721 30.7651 35.2025 27.5853 36.5196C24.4056 37.8367 20.9068 38.1814 17.5314 37.5099C14.156 36.8384 11.0556 35.1811 8.62227 32.7474C6.18892 30.3137 4.53192 27.213 3.8608 23.8373C3.18969 20.4617 3.5346 16.9628 4.85193 13.783C6.16925 10.6032 8.39982 7.88541 11.2616 5.97327Z" fill="url(#paint1_linear_4017_27378)"/>
<path d="M27.4847 16.2288C25.7138 14.5204 23.9303 12.812 22.1719 11.1036C21.7072 10.6514 21.255 10.1992 20.7777 9.73438C19.3959 11.1036 18.617 12.7241 18.4912 14.6209C18.3654 16.5051 18.9179 18.2261 20.0734 19.7586C19.998 19.6958 19.9604 19.6456 19.9101 19.6204C18.3904 18.1382 16.8581 16.6559 15.3509 15.1987C15.2755 15.1108 15.2253 15.1233 15.1499 15.1987C14.9866 15.3746 14.7856 15.5253 14.6223 15.7012C13.9816 16.3167 13.3284 16.9071 12.7254 17.5478C11.7832 18.5401 11.4063 19.7335 11.6071 21.0776C11.7327 21.9946 12.1345 22.786 12.8002 23.4392C13.9181 24.5321 15.061 25.6249 16.1663 26.7178C17.5228 28.0242 18.8667 29.3306 20.2231 30.6245C20.4115 30.8003 20.5999 30.9888 20.7758 31.1521C21.6049 30.3984 22.5471 29.1171 22.8989 27.3961C23.389 25.1225 22.8993 23.0372 21.4801 21.1655C21.5429 21.1906 21.568 21.2283 21.6183 21.2786C23.1255 22.7357 24.6452 24.2054 26.165 25.6626C26.278 25.7882 26.3408 25.7882 26.4539 25.6877C27.1699 24.9843 27.886 24.2808 28.602 23.5899C29.3934 22.8613 29.8583 21.982 29.9714 20.9394C30.0971 19.7586 29.8083 18.6783 29.0296 17.7613C28.5523 17.2086 28.0123 16.7312 27.4847 16.2162L27.4847 16.2288Z" fill="white"/>
<defs>
<linearGradient id="paint0_linear_4017_27378" x1="0.358655" y1="15.5295" x2="43.324" y2="27.1776" gradientUnits="userSpaceOnUse">
<stop stop-color="#FF2899"/>
<stop offset="1" stop-color="#01CCFF"/>
</linearGradient>
<linearGradient id="paint1_linear_4017_27378" x1="6.77038" y1="9.66576" x2="35.1492" y2="34.3975" gradientUnits="userSpaceOnUse">
<stop stop-color="#FF2899"/>
<stop offset="1" stop-color="#01CCFF"/>
</linearGradient>
</defs>
</svg>
