<svg width="66" height="41" viewBox="0 0 66 41" fill="none" xmlns="http://www.w3.org/2000/svg">
<path d="M0 1.27625C0 0.571398 0.571398 0 1.27625 0L64.2007 0C64.9056 0 65.477 0.571398 65.477 1.27625V38.8788C65.477 39.5836 64.9056 40.155 64.2007 40.155L1.27625 40.155C0.571397 40.155 0 39.5836 0 38.8788L0 1.27625Z" fill="url(#paint0_linear_4017_27377)"/>
<rect x="3.49219" y="3.49365" width="58.4928" height="33.1716" rx="2.12709" fill="url(#paint1_linear_4017_27377)"/>
<path d="M20.8526 17.6255C21.3375 15.1885 22.5341 12.9499 24.2911 11.1928C25.4578 10.0262 26.8428 9.10073 28.367 8.4693C29.8913 7.83787 31.5249 7.51284 33.1747 7.51275C34.8245 7.51267 36.4581 7.83753 37.9823 8.46879C39.5064 9.10006 40.8913 10.0254 42.0578 11.1919C43.8147 12.9487 45.0111 15.1872 45.4957 17.6241C45.9803 20.061 45.7314 22.587 44.7804 24.8827C43.8294 27.1783 42.2191 29.1405 40.153 30.521C38.087 31.9016 35.658 32.6385 33.1733 32.6386C30.6886 32.6388 28.2597 31.9021 26.1938 30.5218C24.1279 29.1415 22.5178 27.1795 21.5671 24.884C20.6164 22.5885 20.3677 20.0625 20.8526 17.6255Z" stroke="white" stroke-width="1.06355"/>
<path d="M38.1785 17.0456C36.8613 15.7444 35.5346 14.4431 34.2268 13.1421C33.8811 12.7977 33.5449 12.4534 33.19 12.0994C32.138 13.1173 31.5374 14.3295 31.4258 15.7556C31.3144 17.1722 31.7147 18.4719 32.5704 19.6353C32.5143 19.5874 32.4864 19.5492 32.4488 19.5299C31.3186 18.4011 30.1788 17.2721 29.0578 16.1623C29.0019 16.0955 28.964 16.1045 28.9066 16.1605C28.7821 16.2914 28.6295 16.403 28.5051 16.5339C28.0175 16.9913 27.5207 17.4296 27.0613 17.9063C26.3435 18.6445 26.0492 19.5391 26.1883 20.5521C26.2746 21.2432 26.5699 21.8422 27.065 22.3396C27.8963 23.1719 28.7465 24.0044 29.5684 24.8365C30.5774 25.8316 31.5769 26.8265 32.586 27.8121C32.7262 27.9461 32.8663 28.0895 32.9971 28.214C33.6277 27.6543 34.3481 26.6987 34.6282 25.407C35.0173 23.7007 34.6675 22.1274 33.6163 20.7064C33.6634 20.7259 33.6819 20.7545 33.7193 20.7927C34.8403 21.9025 35.9707 23.0219 37.1012 24.1318C37.1851 24.2274 37.2324 24.2279 37.3184 24.1533C37.8634 23.6304 38.4085 23.1076 38.9534 22.5941C39.5554 22.053 39.913 21.3956 40.0075 20.6121C40.1126 19.7248 39.905 18.9094 39.3273 18.2125C38.9731 17.7924 38.571 17.4284 38.1787 17.0362L38.1785 17.0456Z" fill="white"/>
<defs>
<linearGradient id="paint0_linear_4017_27377" x1="0.361488" y1="12.2927" x2="56.2346" y2="-2.78419" gradientUnits="userSpaceOnUse">
<stop stop-color="#EA5CAF"/>
<stop offset="1" stop-color="#FF90CD"/>
</linearGradient>
<linearGradient id="paint1_linear_4017_27377" x1="3.85367" y1="27.571" x2="27.1005" y2="-13.2677" gradientUnits="userSpaceOnUse">
<stop stop-color="#EA5CAF"/>
<stop offset="1" stop-color="#FF90CD"/>
</linearGradient>
</defs>
</svg>
